<svg width="60" height="60" viewBox="0 0 60 60" fill="none" xmlns="http://www.w3.org/2000/svg">
<path d="M46.692 2.956C40.98 8.672 35.258 14.389 29.552 20.106C23.836 14.392 18.12 8.675 12.402 2.956C5.788 -3.655 -4.46 6.598 2.151 13.209C7.865 18.92 13.584 24.64 19.291 30.349C13.58 36.063 7.862 41.782 2.151 47.499C-4.46 54.108 5.793 64.358 12.402 57.751C18.116 52.034 23.832 46.318 29.552 40.601C35.268 46.318 40.98 52.032 46.692 57.751C53.304 64.359 63.553 54.108 56.947 47.5C51.23 41.783 45.514 36.069 39.797 30.35C45.515 24.634 51.231 18.917 56.947 13.2C63.553 6.591 53.304 -3.662 46.692 2.949" fill="black"/>
</svg>
